<?xml version="1.0" encoding="UTF-8" standalone="no"?>
<!-- Generator: Adobe Illustrator 24.1.2, SVG Export Plug-In . SVG Version: 6.00 Build 0)  -->

<svg
   version="1.1"
   id="Layer_3"
   x="0px"
   y="0px"
   viewBox="0 0 32 32"
   xml:space="preserve"
   sodipodi:docname="plugin-wf-unicorn.svg"
   width="32"
   height="32"
   inkscape:version="1.2.2 (b0a8486541, 2022-12-01)"
   xmlns:inkscape="http://www.inkscape.org/namespaces/inkscape"
   xmlns:sodipodi="http://sodipodi.sourceforge.net/DTD/sodipodi-0.dtd"
   xmlns="http://www.w3.org/2000/svg"
   xmlns:svg="http://www.w3.org/2000/svg"><defs
   id="defs268" /><sodipodi:namedview
   id="namedview266"
   pagecolor="#505050"
   bordercolor="#eeeeee"
   borderopacity="1"
   inkscape:showpageshadow="0"
   inkscape:pageopacity="0"
   inkscape:pagecheckerboard="0"
   inkscape:deskcolor="#505050"
   showgrid="false"
   inkscape:zoom="8"
   inkscape:cx="22.8125"
   inkscape:cy="24.4375"
   inkscape:window-width="1920"
   inkscape:window-height="1047"
   inkscape:window-x="0"
   inkscape:window-y="0"
   inkscape:window-maximized="1"
   inkscape:current-layer="Layer_3" />
<path
   style="fill:#e74b8c;stroke-width:0.282106"
   d="m 12.19405,5.2397327 c 0,0 -3.2089023,-0.683508 -5.8157733,0.3376685 -2.4432055,0.958544 -2.7909822,2.785769 -2.5717972,3.834178 0.219188,1.0484068 0.9264333,1.9661048 2.3438432,2.0505208 0.967348,0.0572 1.294667,-0.46021 1.160234,-0.67806 -0.07014,-0.11164 -1.095939,-0.716184 -0.625414,-1.4704948 0.394536,-0.629044 1.724272,-0.04902 2.104198,0.4983345 0.356545,0.5119503 0.824143,1.2526443 0.824143,1.2526443 0,0 4.0330483,-1.6093768 3.9482933,-1.7128548 -0.08474,-0.10348 -1.367727,-4.1119365 -1.367727,-4.1119365 z"
   id="path217" />
<polygon
   style="fill:#fcd817"
   points="39.03,37.25 43.06,43.53 53.34,39.03 50.43,32.51 46.11,28.66 "
   id="polygon219"
   transform="matrix(0.29224977,0,0,0.27231371,-2.7369915,-1.5163707)" />
<path
   style="fill:#ef7fad;stroke-width:0.282106"
   d="m 5.6944137,8.3577232 c -0.157801,0.432979 -0.01762,1.12738 -0.6020354,1.187288 -0.6020331,0.06262 -1.0374853,-0.615428 -0.6721739,-1.699236 0.3156304,-0.934037 1.5606143,-1.489557 2.0428283,-0.727079 0.353621,0.560967 -0.482214,0.446595 -0.768619,1.239027 z"
   id="path221" />
<path
   style="fill:#bbd047;stroke-width:0.282106"
   d="m 8.6139897,4.2049404 c -0.08183,0.127986 -1.508009,2.0831998 -1.508009,2.0831998 l 1.370653,2.03146 1.6453663,-0.778817 0.341931,-1.546742 z"
   id="path223" />
<polygon
   style="fill:#62a5a8"
   points="33.4,28.19 37.29,26.26 39.08,21.15 33.49,15.52 29.22,20.91 "
   id="polygon225"
   transform="matrix(0.29224977,0,0,0.27231371,-2.7369915,-1.5163707)" />
<polygon
   style="fill:#38b2e8"
   points="29.08,20.59 31.57,18.76 33.3,15.28 27.67,9.65 24.72,12.75 "
   id="polygon227"
   transform="matrix(0.29224977,0,0,0.27231371,-2.7369915,-1.5163707)" />
<path
   style="fill:#a37bcb;stroke-width:0.282106"
   d="m 3.7041933,0.05215618 c -0.2951716,0.2750368 0.780306,1.89258032 0.780306,1.89258032 0,0 0.7949197,-0.8441724 0.7949197,-0.893189 0.00304,-0.054464 -1.2332938,-1.32072152 -1.5752257,-0.99939132 z"
   id="path229" />
<path
   style="fill:#a364b2;stroke-width:0.282106"
   d="m 10.466853,5.8905622 c 0.397459,-0.103478 0.672174,0.588197 0.31563,1.290767 -0.318552,0.626321 -0.780307,1.111039 -1.3998753,1.43237 -0.306863,0.15794 -0.768619,0.332222 -0.946889,0.0245 -0.192893,-0.329501 0.0263,-0.498335 0.412071,-0.75431 0.353622,-0.236912 0.71309,-0.588196 0.917664,-0.92042 0.2045754,-0.332223 0.4033053,-0.996668 0.7013993,-1.072916 z"
   id="path231" />
<path
   style="fill:#a364b2;stroke-width:0.282106"
   d="m 8.5730737,4.038829 c 0.321477,-0.08714 0.56112,0.5119497 0.271794,1.1137627 -0.25718,0.5364575 -0.575732,0.9639905 -1.072558,1.2390275 -0.24549,0.136156 -0.619568,0.285929 -0.762771,0.02179 -0.154885,-0.283206 -0.0087,-0.481995 0.301018,-0.70257 0.286405,-0.201512 0.534817,-0.5718575 0.698476,-0.8550645 0.166589,-0.283206 0.324398,-0.7515857 0.564041,-0.8169417 z"
   id="path233" />
<path
   style="fill:#a364b2;stroke-width:0.282106"
   d="m 6.9335537,2.4049468 c 0.265947,0.068078 0.452985,0.5065034 0.213344,0.9558212 -0.213344,0.400301 -0.420842,0.6127056 -0.835835,0.816941 -0.207498,0.100756 -0.447144,0.2287436 -0.578655,0.076248 -0.166589,-0.19062 -0.2279542,-0.4629334 0.03213,-0.6263216 0.239644,-0.149772 0.508514,-0.3322228 0.686786,-0.6508298 0.119813,-0.220574 0.236721,-0.6344908 0.482212,-0.5718588 z"
   id="path235" />
<path
   style="fill:#a364b2;stroke-width:0.282106"
   d="M 5.1742109,0.89088248 C 5.3554001,0.85003448 5.5775157,1.2040433 5.416777,1.4872495 5.2735751,1.7405013 5.0894564,1.9011663 4.8088975,2.0318769 4.6715278,2.0972329 4.5166467,2.1353549 4.4348182,2.0128169 4.3471402,1.8793829 4.2653132,1.7867965 4.4406882,1.6833173 4.6014253,1.5880073 4.8264593,1.3728795 4.9199776,1.2367229 5.0135076,1.1032889 5.0397913,0.92356208 5.174237,0.89088448 Z"
   id="path237" />
<path
   style="fill:#dfdfdf;stroke-width:0.282106"
   d="m 11.957328,31.134044 c -0.295175,-0.18244 1.168997,-4.926154 1.744731,-6.18969 0.575733,-1.26626 0.917663,-2.32556 0.917663,-2.32556 0,0 -2.755914,0.394856 -4.53864,0.40847 -1.3589593,0.0108 -3.3316453,-0.1525 -3.3316453,-0.1525 l -3.9512181,-4.83084 c 0,0 1.1105491,-1.878966 1.7681112,-2.644166 0.6575622,-0.767924 2.6331709,-3.259596 3.6209739,-4.13917 0.987805,-0.882296 2.3438433,-1.8027148 2.9224983,-2.0314608 0.575733,-0.228744 0.94689,-0.383961 0.94689,-0.383961 0,0 -0.289329,-1.647498 -0.163653,-2.682291 0.12275,-1.0347915 1.697972,-3.9240399 1.946383,-3.9240399 0.330242,0 1.756422,1.9688283 2.042826,3.3086109 0.289327,1.339784 3.416401,5.0977138 3.416401,5.0977138 l 9.132803,16.101908 c 0,0 0.163653,4.294388 0.12275,4.446884 C 28.513282,31.346452 23.451521,32 20.365366,32 17.279207,32 12.20575,31.289262 11.95734,31.134044 Z"
   id="path239" />
<path
   style="fill:#b0b0b0;stroke-width:0.282106"
   d="m 18.179325,17.376756 c -0.303941,-0.0136 -1.171923,1.60665 -2.042827,2.799384 -0.733545,1.002114 -1.592761,1.48411 -2.510426,1.930704 -0.946889,0.46021 -2.35261,0.759756 -1.873318,0.84962 0.479287,0.08986 3.340413,-0.20696 4.298991,-0.582752 0.540662,-0.209682 1.294667,-1.247196 1.680438,-1.93615 0.385769,-0.688954 1.078401,-3.036298 0.447142,-3.060806 z"
   id="path241" />
<path
   style="fill:#303030;stroke-width:0.282106"
   d="m 12.983123,14.261486 c 0.06137,0.844174 -0.268869,1.57125 -1.212836,1.628436 -0.66633,0.04084 -1.166077,-0.588198 -1.250829,-1.356122 -0.06721,-0.59909 0.20166,-1.37246 1.081324,-1.486834 0.827067,-0.10892 1.323893,0.443872 1.382341,1.21452 z"
   id="path243" />
<path
   style="fill:#e74b8c;stroke-width:0.282106"
   d="m 15.841327,5.5583392 c 0,0 2.481201,1.040238 3.436858,0.844172 0.739391,-0.152496 0.99657,-0.650829 1.028718,-1.1491625 0.04092,-0.669892 -0.59619,-0.593644 -0.698476,-0.8632351 -0.102298,-0.2695904 0.65756,-0.7488626 1.543078,-0.5936438 0.885515,0.152496 1.940539,0.9149739 1.920081,2.1403854 -0.02047,1.225412 -0.829989,1.884411 -0.829989,1.884411 0,0 2.133423,-0.09532 3.559602,1.266259 1.60445,1.5331268 1.25375,4.0438588 1.25375,4.0438588 0,0 0.844603,0.11436 1.151465,-0.288652 0.306861,-0.403024 0.225032,-0.863234 0.02047,-1.130102 -0.204576,-0.269592 0.391615,-0.441148 0.780308,-0.288652 0.391615,0.1525 2.197717,1.358844 1.215758,3.305888 -0.607879,1.209072 -2.142191,1.391524 -2.142191,1.391524 0,0 2.571798,1.059298 3.512843,3.730696 1.034565,2.940988 -0.09645,4.8962 -1.268366,6.772442 -1.17192,1.878966 -1.06671,1.990614 -1.131005,2.606042 -0.08183,0.767924 -0.330242,1.72647 -0.637105,1.704684 -0.309784,-0.019 -0.678019,-0.82511 -0.86506,-1.704684 -0.184125,-0.882296 -1.338501,-1.74553 -2.262012,-2.529794 -0.923508,-0.784262 -3.243972,-2.856572 -3.910302,-4.751874 -0.844602,-2.396362 -0.412072,-5.732204 -0.412072,-5.732204 0,0 -2.55134,-1.091978 -3.971674,-3.278656 -1.537234,-2.366408 -1.399877,-4.1010458 -1.399877,-4.1010458 0,0 0.391615,-1.034793 0.412073,-1.745531 0.02047,-0.710739 -0.306863,-1.533126 -0.306863,-1.533126 z"
   id="path245" />
<path
   style="fill:#f081af;stroke-width:0.282106"
   d="m 19.853915,7.2085602 c 0.178273,0.713462 1.583994,0.345839 1.852863,-0.863235 0.26887,-1.2090715 -0.473443,-1.7455295 -0.905974,-1.5140635 -0.432528,0.228744 0.102298,0.8441725 -0.184105,1.3615685 -0.286405,0.517396 -0.908897,0.438425 -0.762774,1.01573 z"
   id="path247" />
<path
   style="fill:#f081af;stroke-width:0.282106"
   d="m 26.984809,14.1689 c -0.245487,0.697122 1.037487,0.939482 2.042827,0.1879 1.031641,-0.77337 0.739392,-1.917088 0.143201,-1.859902 -0.756928,0.07352 -0.435452,0.871404 -0.97027,1.173672 -0.534815,0.304992 -1.01703,-0.0599 -1.215758,0.498334 z"
   id="path249" />
<path
   style="fill:#f081af;stroke-width:0.282106"
   d="m 18.229006,8.1071952 c -0.987802,-0.114368 -1.125162,1.6801765 -0.514359,2.9137568 0.967347,1.955214 2.5718,1.590314 3.682347,2.856572 0.859215,0.98033 0.657562,2.243866 1.543078,2.224802 0.885518,-0.019 1.11055,-1.399692 -0.245487,-3.085314 -1.358964,-1.68562 -3.065702,-1.68562 -3.580061,-2.70135 -0.517283,-1.0184568 0.265947,-2.0723108 -0.885518,-2.2084668 z"
   id="path251" />
<path
   style="fill:#f081af;stroke-width:0.282106"
   d="m 23.246935,16.79128 c -1.131006,0.601814 -0.324396,1.966106 0.289329,2.088646 0.865058,0.17156 1.253749,-0.3649 1.358961,-0.901358 0.105214,-0.536458 -0.496827,-1.799992 -1.64829,-1.187288 z"
   id="path253" />
<path
   style="fill:#f081af;stroke-width:0.282106"
   d="m 24.111993,20.031814 c -0.894284,0.13616 -0.794918,0.97216 -0.637102,1.821778 0.268869,1.456878 1.09009,2.856572 2.057437,3.60271 0.935201,0.721632 1.461249,0.498334 1.727195,0.209682 0.315631,-0.337668 0.02047,-0.939482 -0.350696,-1.342506 -0.37116,-0.403024 -0.850449,-0.920422 -1.171923,-1.36157 -0.391615,-0.536456 -0.438376,-1.23358 -0.514359,-1.628436 -0.143201,-0.765202 -0.227956,-1.437814 -1.110552,-1.301658 z"
   id="path255" />
<path
   style="fill:#ffffff;stroke-width:0.282106"
   d="m 0.57712076,23.885052 c 0.90597444,1.593036 3.02478444,1.187288 3.02478444,1.187288 0,0 1.9960665,-0.844172 1.9960665,-0.901358 0,-0.0572 1.315123,-1.609374 1.315123,-1.609374 0,0 -0.350699,-1.399692 -1.7067384,-2.932818 C 4.1337996,18.419716 3.0057169,17.826072 3.0057169,17.826072 l -2.46951094,2.069586 c 0,0 -1.23329406,1.745528 0.0409148,3.989394 z"
   id="path257" />
<path
   style="fill:#90909b;stroke-width:0.282106"
   d="m 2.2020294,19.685974 c -0.1432014,0.498334 0.330242,0.688954 0.4939021,0.863236 0.163659,0.17156 -0.225032,0.901358 0.330242,1.091976 0.5552751,0.19062 1.1923786,-0.66989 0.9878043,-1.418752 -0.22211,-0.800602 -1.5956833,-1.282598 -1.8119484,-0.53646 z"
   id="path259" />
<path
   style="fill:#afafaf;stroke-width:0.280366"
   d="m 11.606478,23.33191 c -0.141446,-0.255976 -0.453189,-0.12798 -0.759163,0.1416 -0.305974,0.26959 -2.0321313,1.456878 -2.5199583,2.54341 -0.3579323,0.797878 -0.6148354,2.336452 0.314634,3.589094 0.9641076,1.30166 1.8300733,1.426924 3.1492263,1.323446 1.931102,-0.1525 2.999126,-1.647498 3.20407,-1.898028 0.204946,-0.25053 0.649474,-0.792434 0.407006,-1.0593 -0.242472,-0.26959 -0.47051,0.11982 -0.785142,0.522842 -0.407006,0.517396 -0.730298,0.830558 -1.137302,1.176394 -0.236698,0.201514 -0.915036,0.550076 -1.197918,0.607262 -0.285769,0.0572 0.562878,-0.403026 0.89483,-0.939482 0.225152,-0.362182 0.689884,-1.225418 0.689884,-1.225418 l -0.7938,-0.228742 c 0,0 -0.386798,0.792432 -0.689886,1.138272 -0.305974,0.345836 -1.258535,1.124654 -1.544303,1.18184 -0.285769,0.0572 -1.3624525,-0.394846 -1.8416196,-1.20634 -0.4618481,-0.778818 -0.5340119,-1.898028 -0.06639,-2.780324 0.4676212,-0.882298 1.6453336,-1.783654 2.0119256,-2.050522 0.360819,-0.275036 0.84576,-0.509228 0.663906,-0.836004 z"
   id="path261" />
<path
   style="fill:#90909b;stroke-width:0.282106"
   d="m 5.5979717,21.801852 c -0.222111,-0.17972 -0.5903438,-0.05174 -0.7803064,0.19062 -0.1928926,0.24236 -0.2601033,0.522844 0.1227499,0.716186 0.3828476,0.19062 0.6312615,-0.0136 0.8095325,-0.24236 0.175357,-0.231466 0.05261,-0.498334 -0.151988,-0.664446 z"
   id="path263" />
</svg>
